<?xml version="1.0" encoding="UTF-8"?>
<!DOCTYPE svg PUBLIC "-//W3C//DTD SVG 1.1//EN" "http://www.w3.org/Graphics/SVG/1.1/DTD/svg11.dtd">
<!-- Creator: CorelDRAW X7 -->
<svg xmlns="http://www.w3.org/2000/svg" xml:space="preserve" width="0.723in" height="0.836in" version="1.1" style="shape-rendering:geometricPrecision; text-rendering:geometricPrecision; image-rendering:optimizeQuality; fill-rule:evenodd; clip-rule:evenodd"
viewBox="0 0 723 836"
 xmlns:xlink="http://www.w3.org/1999/xlink">
 <defs>
  <style type="text/css">
   <![CDATA[
    .fil0 {fill:none}
    .fil2 {fill:#009933}
    .fil1 {fill:#009933;fill-rule:nonzero}
   ]]>
  </style>
 </defs>
 <g id="Layer_x0020_1">
  <metadata id="CorelCorpID_0Corel-Layer"/>
  <rect class="fil0" width="723" height="836"/>
  <g id="_2399767397952">
   <path class="fil1" d="M50 477l32 0 0 94 -32 0 0 -94zm122 56l28 7c-2,7 -5,13 -9,18 -4,5 -9,8 -15,11 -5,2 -13,3 -22,3 -11,0 -20,-1 -27,-4 -7,-3 -13,-8 -19,-16 -5,-7 -7,-17 -7,-28 0,-16 4,-28 13,-36 9,-8 22,-12 38,-12 13,0 23,2 31,7 7,5 13,12 16,22l-28 5c-1,-2 -2,-4 -3,-6 -2,-2 -4,-4 -6,-5 -3,-1 -6,-2 -9,-2 -7,0 -12,3 -16,8 -3,4 -5,10 -5,19 0,10 2,17 6,21 3,4 8,6 14,6 6,0 11,-2 14,-5 3,-3 5,-8 6,-13zm111 0l28 7c-2,7 -5,13 -9,18 -4,5 -9,8 -15,11 -6,2 -13,3 -22,3 -11,0 -20,-1 -27,-4 -8,-3 -14,-8 -19,-16 -5,-7 -7,-17 -7,-28 0,-16 4,-28 13,-36 9,-8 22,-12 38,-12 13,0 23,2 31,7 7,5 12,12 16,22l-28 5c-1,-2 -2,-4 -3,-6 -2,-2 -4,-4 -6,-5 -3,-1 -6,-2 -9,-2 -7,0 -13,3 -16,8 -3,4 -5,10 -5,19 0,10 2,17 5,21 4,4 9,6 15,6 6,0 11,-2 14,-5 3,-3 5,-8 6,-13zm43 -56l42 0 15 57 16 -57 42 0 0 94 -26 0 0 -72 -20 72 -23 0 -20 -72 0 72 -26 0 0 -94zm124 0l30 0 11 52 16 -52 30 0 16 53 10 -53 30 0 -22 94 -31 0 -18 -59 -18 59 -31 0 -23 -94z"/>
   <path class="fil1" d="M84 666l0 8 -34 0c1,-3 2,-6 4,-9 1,-3 5,-7 10,-11 4,-4 7,-7 8,-8 1,-2 2,-4 2,-6 0,-2 -1,-3 -2,-4 -1,-1 -2,-2 -4,-2 -2,0 -4,1 -5,2 -1,1 -2,3 -2,6l-10 -1c1,-5 3,-9 6,-11 3,-2 6,-3 11,-3 5,0 9,1 11,3 3,3 5,6 5,10 0,2 -1,4 -2,6 0,2 -2,4 -3,6 -2,1 -4,3 -7,6 -3,2 -5,4 -5,5 -1,1 -2,2 -2,3l19 0zm50 -9l0 -8 22 0 0 18c-2,2 -5,4 -9,6 -4,1 -8,2 -12,2 -6,0 -10,-1 -14,-3 -4,-2 -7,-5 -9,-9 -1,-4 -2,-8 -2,-13 0,-5 1,-9 3,-13 2,-4 5,-7 9,-9 3,-1 7,-2 12,-2 6,0 11,1 15,4 3,2 5,6 6,10l-10 2c0,-3 -2,-4 -4,-6 -2,-1 -4,-2 -7,-2 -4,0 -8,2 -10,4 -3,3 -4,7 -4,12 0,5 1,10 4,12 2,3 6,5 10,5 2,0 4,-1 6,-2 2,0 4,-1 6,-2l0 -6 -12 0zm40 17l-9 0 0 -34 8 0 0 5c2,-3 3,-4 5,-5 1,-1 2,-1 4,-1 2,0 4,1 6,2l-3 8c-2,-1 -3,-2 -5,-2 -1,0 -2,1 -3,1 -1,1 -2,2 -2,4 -1,2 -1,6 -1,11l0 11zm25 -24l-9 -1c1,-3 3,-6 5,-7 3,-2 6,-3 11,-3 4,0 7,1 10,2 2,1 3,2 4,3 1,2 1,4 1,8l0 11c0,3 0,5 0,6 1,2 1,3 2,5l-9 0c-1,-1 -1,-2 -1,-3 0,0 0,-1 -1,-1 -1,2 -3,3 -5,4 -2,0 -4,1 -6,1 -3,0 -6,-1 -8,-3 -2,-2 -4,-4 -4,-7 0,-2 1,-4 2,-5 1,-2 2,-3 4,-4 2,-1 4,-1 8,-2 4,-1 7,-2 9,-2l0 -1c0,-2 -1,-3 -2,-4 -1,-1 -2,-1 -5,-1 -1,0 -3,0 -4,1 -1,1 -1,2 -2,3zm13 8c-1,0 -3,0 -6,1 -3,1 -4,1 -5,2 -1,0 -2,1 -2,3 0,1 0,2 1,3 1,1 3,1 4,1 2,0 4,0 5,-1 1,-1 2,-2 2,-3 1,-1 1,-2 1,-5l0 -1zm51 16l-9 0 0 -17c0,-4 -1,-7 -1,-8 0,-1 -1,-1 -2,-2 -1,-1 -2,-1 -3,-1 -2,0 -3,0 -5,1 -1,1 -2,2 -2,4 -1,1 -1,4 -1,7l0 16 -10 0 0 -34 9 0 0 5c3,-4 7,-6 12,-6 2,0 4,0 6,1 2,1 3,2 4,3 1,1 1,2 2,4 0,1 0,3 0,6l0 21zm43 0l-9 0 0 -5c-2,2 -3,3 -5,4 -2,1 -4,2 -6,2 -4,0 -8,-2 -11,-5 -3,-3 -4,-8 -4,-13 0,-6 1,-10 4,-13 3,-3 6,-5 11,-5 4,0 7,2 10,5l0 -17 10 0 0 47zm-26 -18c0,4 1,6 2,8 1,2 4,4 6,4 3,0 4,-1 6,-3 1,-2 2,-4 2,-8 0,-4 -1,-7 -2,-8 -2,-2 -3,-3 -6,-3 -2,0 -4,1 -5,3 -2,1 -3,4 -3,7zm45 18l-15 -34 10 0 7 17 2 6c1,-1 1,-2 1,-3 0,-1 1,-2 1,-3l7 -17 10 0 -15 34 -8 0zm28 -39l0 -8 10 0 0 8 -10 0zm0 39l0 -34 10 0 0 34 -10 0zm40 -11l10 2c-1,3 -3,5 -6,7 -2,2 -6,3 -10,3 -6,0 -10,-2 -14,-6 -2,-3 -3,-7 -3,-12 0,-5 2,-10 5,-13 3,-3 7,-5 11,-5 6,0 10,2 13,5 3,3 5,9 4,16l-23 0c0,2 1,4 2,6 1,1 3,2 5,2 2,0 3,0 4,-1 1,-1 2,-2 2,-4zm1 -9c0,-3 -1,-5 -2,-6 -1,-1 -3,-2 -5,-2 -2,0 -4,1 -5,2 -1,2 -2,4 -2,6l14 0zm24 20l-12 -34 10 0 6 22 7 -22 9 0 6 22 7 -22 9 0 -12 34 -9 0 -6 -22 -6 22 -9 0zm66 -47l20 0c4,0 7,0 9,0 2,1 4,1 5,2 2,1 3,3 4,4 1,2 1,4 1,6 0,2 0,4 -1,6 -2,2 -3,3 -6,4 3,1 6,2 7,4 2,2 3,4 3,7 0,2 -1,4 -2,6 -1,3 -2,4 -4,5 -2,2 -4,2 -7,3 -1,0 -5,0 -12,0l-17 0 0 -47zm10 8l0 11 7 0c4,0 6,0 7,-1 2,0 3,0 4,-1 1,-1 2,-2 2,-4 0,-1 -1,-3 -2,-3 0,-1 -2,-2 -3,-2 -1,0 -4,0 -9,0l-6 0zm0 18l0 13 10 0c3,0 6,0 6,0 2,-1 3,-1 4,-2 1,-1 2,-3 2,-4 0,-2 -1,-3 -2,-4 0,-1 -1,-2 -3,-2 -1,0 -4,-1 -9,-1l-8 0zm40 21l0 -47 10 0 0 47 -10 0zm29 0l-14 -34 10 0 7 17 2 6c0,-1 0,-2 1,-3 0,-1 0,-2 1,-3l6 -17 10 0 -14 34 -9 0zm62 0l-9 0 0 -5c-1,2 -3,3 -5,4 -2,1 -4,2 -6,2 -4,0 -8,-2 -11,-5 -3,-3 -4,-8 -4,-13 0,-6 1,-10 4,-13 3,-3 7,-5 11,-5 4,0 7,2 10,5l0 -17 10 0 0 47zm-25 -18c0,4 0,6 1,8 2,2 4,4 7,4 2,0 4,-1 5,-3 2,-2 2,-4 2,-8 0,-4 0,-7 -2,-8 -1,-2 -3,-3 -6,-3 -2,0 -4,1 -5,3 -2,1 -2,4 -2,7zm34 18l0 -9 10 0 0 9 -10 0z"/>
   <path class="fil1" d="M69 774l0 -22 -19 -31 12 0 12 21 11 -21 12 0 -18 31 0 22 -10 0zm31 -20c0,-3 1,-6 2,-10 2,-3 4,-5 7,-7 3,-2 6,-2 9,-2 6,0 10,1 14,5 3,4 5,9 5,15 0,6 -2,11 -5,14 -4,4 -8,6 -13,6 -4,0 -7,-1 -10,-2 -3,-2 -5,-4 -7,-7 -1,-3 -2,-7 -2,-12zm10 1c0,4 1,7 2,9 2,2 4,3 7,3 2,0 4,-1 6,-3 2,-2 2,-5 2,-9 0,-4 0,-7 -2,-9 -2,-2 -4,-3 -6,-3 -3,0 -5,1 -7,3 -1,2 -2,5 -2,9zm68 19l-10 0 0 -20c0,-4 0,-6 0,-8 -1,-1 -1,-2 -2,-3 -1,0 -2,-1 -4,-1 -1,0 -3,1 -4,2 -2,1 -3,2 -3,4 0,1 -1,4 -1,9l0 17 -9 0 0 -39 9 0 0 6c3,-4 7,-6 12,-6 2,0 4,0 5,1 2,1 4,2 4,3 1,1 2,3 2,4 1,2 1,4 1,7l0 24zm9 0l0 -53 10 0 0 28 11 -14 12 0 -13 15 14 24 -11 0 -9 -17 -4 5 0 12 -10 0zm60 -12l10 2c-1,3 -3,6 -6,8 -3,2 -6,3 -10,3 -6,0 -11,-2 -14,-6 -2,-4 -3,-8 -3,-14 0,-6 1,-11 4,-15 3,-4 7,-5 12,-5 6,0 10,1 13,5 3,4 5,10 4,18l-24 0c1,3 1,5 3,7 1,2 3,2 5,2 2,0 3,0 4,-1 1,-1 2,-2 2,-4zm1 -10c0,-3 -1,-6 -2,-7 -2,-2 -3,-3 -5,-3 -2,0 -4,1 -5,3 -2,2 -2,4 -2,7l14 0zm26 22l-9 0 0 -39 9 0 0 6c1,-3 3,-4 4,-5 1,-1 2,-1 4,-1 2,0 4,0 6,2l-3 8c-1,-1 -3,-1 -4,-1 -1,0 -3,0 -4,1 0,1 -1,2 -2,4 0,2 -1,7 -1,13l0 12zm15 -11l10 -1c0,2 1,3 2,4 1,1 3,2 5,2 3,0 5,-1 6,-2 1,0 1,-1 1,-2 0,-1 0,-2 0,-2 -1,-1 -2,-1 -4,-2 -7,-2 -12,-3 -14,-5 -3,-2 -5,-5 -5,-8 0,-4 2,-7 4,-9 3,-2 6,-3 12,-3 5,0 8,0 11,2 2,2 4,4 5,8l-9 2c-1,-2 -1,-3 -3,-4 -1,-1 -2,-1 -4,-1 -3,0 -4,0 -6,1 0,1 -1,1 -1,2 0,1 1,2 1,2 1,1 4,2 9,3 5,1 9,3 11,5 2,1 3,4 3,7 0,4 -1,7 -4,9 -3,3 -7,4 -13,4 -4,0 -8,-1 -11,-3 -3,-2 -5,-5 -6,-9zm42 1l10 0 0 7c0,3 -1,6 -1,7 -1,2 -1,4 -3,5 -1,1 -3,2 -5,3l-2 -4c2,-1 4,-2 4,-3 1,-1 2,-3 2,-5l-5 0 0 -10zm39 10l0 -53 10 0 21 36 0 -36 9 0 0 53 -10 0 -20 -35 0 35 -10 0zm64 0l0 -22 -18 -31 11 0 12 21 12 -21 11 0 -18 31 0 22 -10 0zm75 0l-9 0 0 -39c-4,4 -8,7 -13,8l0 -9c3,-1 6,-3 8,-5 3,-2 5,-5 7,-9l7 0 0 54zm31 -54c5,0 9,2 11,6 4,4 5,12 5,22 0,10 -1,17 -5,22 -2,3 -6,5 -11,5 -5,0 -9,-2 -12,-6 -3,-4 -4,-11 -4,-21 0,-10 1,-18 5,-22 2,-4 6,-6 11,-6zm0 9c-1,0 -2,0 -3,1 -1,1 -2,2 -2,4 -1,3 -1,7 -1,14 0,6 0,10 1,13 0,2 1,4 2,4 1,1 2,2 3,2 1,0 2,-1 3,-2 1,0 2,-2 2,-4 1,-2 1,-7 1,-13 0,-7 0,-11 -1,-13 0,-2 -1,-4 -2,-5 -1,-1 -2,-1 -3,-1zm22 2l0 -10 33 0 0 8c-2,3 -5,7 -8,12 -3,5 -5,11 -6,17 -2,6 -2,12 -2,16l-10 0c0,-7 2,-15 5,-23 2,-7 6,-14 10,-20l-22 0zm64 43l-10 0 0 -39c-3,4 -7,7 -12,8l0 -9c2,-1 5,-3 8,-5 3,-2 5,-5 6,-9l8 0 0 54zm31 -54c4,0 8,2 11,6 3,4 5,12 5,22 0,10 -2,17 -5,22 -3,3 -7,5 -11,5 -5,0 -9,-2 -12,-6 -3,-4 -5,-11 -5,-21 0,-10 2,-18 5,-22 3,-4 7,-6 12,-6zm0 9c-2,0 -3,0 -4,1 0,1 -1,2 -2,4 0,3 -1,7 -1,14 0,6 1,10 1,13 1,2 2,4 2,4 1,1 2,2 4,2 1,0 2,-1 3,-2 0,0 1,-2 2,-4 0,-2 1,-7 1,-13 0,-7 -1,-11 -1,-13 -1,-2 -2,-4 -2,-5 -1,-1 -2,-1 -3,-1z"/>
   <path class="fil2" d="M349 99l0 1 46 0c1,0 1,-2 1,-3 0,-3 -1,-5 -2,-8 -1,-3 -3,-8 -5,-11 -2,-1 -1,-1 -4,-3 0,0 -1,-1 -2,-1 -2,-2 -3,-2 -5,-4 -3,-2 -1,-2 -9,-2 0,0 -1,2 -2,2l-1 1c-4,3 -8,4 -11,9 -3,4 -6,11 -6,19z"/>
   <path class="fil2" d="M346 103l0 4c-4,0 -3,-1 -3,7l26 0 0 -3c0,-2 2,-4 5,-3 3,2 1,6 2,6l26 0 0 -6c0,-1 -1,-1 -3,-1 0,-2 1,-5 0,-5l-52 0c-1,0 -1,0 -1,1z"/>
   <path class="fil2" d="M370 56c0,5 2,2 0,9 -1,1 -1,1 -1,2l7 0c0,-1 -1,-3 -1,-4 -2,-6 2,-3 -2,-11 0,-1 0,-2 -1,-2 0,1 -2,5 -2,6z"/>
   <path class="fil2" d="M370 111l0 3 4 0c0,-2 0,-4 -2,-4 -1,0 -2,0 -2,1z"/>
   <path class="fil2" d="M258 358c-3,-19 -17,-21 -17,-21 -61,-14 -191,91 -191,91 33,-14 180,-105 182,-66 1,31 44,7 44,7 59,-23 29,-2 29,-2l-75 57 49 -26c156,-98 -21,-40 -21,-40z"/>
   <path class="fil2" d="M366 350c-159,93 20,41 20,41 2,19 16,21 16,21 61,16 193,-85 193,-85 -33,13 -183,100 -183,61 0,-31 -44,-8 -44,-8 -60,21 -29,1 -29,1l76 -56 -49 25z"/>
   <path class="fil2" d="M337 322c14,26 46,7 61,-16 -45,38 -63,-13 -64,-55 -2,-56 24,-105 32,-127 -36,46 -56,148 -29,198z"/>
   <path class="fil2" d="M326 232c-69,-18 -38,-66 -38,-66 -20,8 -37,25 -21,46 7,9 15,16 25,21 1,0 1,1 2,1 10,5 20,8 31,10 3,1 6,1 9,2 62,9 138,-12 138,-12 -13,2 -25,3 -36,4 -46,3 -79,1 -102,-4 -3,0 -5,-1 -8,-2z"/>
   <path class="fil2" d="M326 282c-55,-14 -30,-51 -30,-51 -16,6 -30,20 -17,36 11,14 29,22 48,25 5,1 10,2 15,2 49,5 104,-10 104,-10 -10,1 -20,2 -29,3 -34,2 -60,1 -78,-2 -5,-1 -9,-2 -13,-3z"/>
  </g>
 </g>
</svg>
